<svg width="1200" height="675" viewBox="0 0 1200 675" fill="none" xmlns="http://www.w3.org/2000/svg">
  <rect width="1200" height="675" fill="#1d2427"/>
  <rect x="0.5" y="0.5" width="1199" height="674" stroke="rgba(255,255,255,0.1)" stroke-width="1"/>

  <!-- instrument readout -->
  <text x="72" y="168" fill="#f5f8fa" font-size="88" font-weight="600" font-family="Menlo, monospace">142MS</text>
  <text x="76" y="204" fill="#a7b6c2" font-size="18" letter-spacing="4" font-family="Menlo, monospace">STARTUP · PRELOAD TO FIRST CALL</text>

  <!-- meter bars -->
  <rect x="72.5" y="268.5" width="655" height="19" rx="3" fill="#21232d" stroke="rgba(255,255,255,0.1)"/>
  <rect x="74" y="270" width="500" height="16" rx="2" fill="#137cbd"/>
  <text x="748" y="284" fill="#a7b6c2" font-size="18" font-family="Menlo, monospace">RUNTIME</text>

  <rect x="72.5" y="316.5" width="655" height="19" rx="3" fill="#21232d" stroke="rgba(255,255,255,0.1)"/>
  <rect x="74" y="318" width="284" height="16" rx="2" fill="#48aff0"/>
  <text x="748" y="332" fill="#a7b6c2" font-size="18" font-family="Menlo, monospace">BUNDLE</text>

  <rect x="72.5" y="364.5" width="655" height="19" rx="3" fill="#21232d" stroke="rgba(255,255,255,0.1)"/>
  <rect x="74" y="366" width="118" height="16" rx="2" fill="#3dd68c"/>
  <text x="748" y="380" fill="#a7b6c2" font-size="18" font-family="Menlo, monospace">NATIVE EXT</text>

  <!-- secondary metrics -->
  <text x="72" y="472" fill="#f5f8fa" font-size="44" font-weight="600" font-family="Menlo, monospace">58MB</text>
  <text x="74" y="500" fill="#608291" font-size="16" letter-spacing="3" font-family="Menlo, monospace">APP SIZE</text>
  <text x="332" y="472" fill="#f5f8fa" font-size="44" font-weight="600" font-family="Menlo, monospace">47MB</text>
  <text x="334" y="500" fill="#608291" font-size="16" letter-spacing="3" font-family="Menlo, monospace">MEMORY</text>
  <text x="592" y="472" fill="#3dd68c" font-size="44" font-weight="600" font-family="Menlo, monospace">+11MB</text>
  <text x="594" y="500" fill="#608291" font-size="16" letter-spacing="3" font-family="Menlo, monospace">2ND WINDOW</text>

  <!-- hairline rule -->
  <rect x="72" y="560" width="1056" height="1" fill="rgba(255,255,255,0.1)"/>

  <!-- app name -->
  <text x="72" y="620" fill="#a7b6c2" font-size="30" letter-spacing="6" font-family="Menlo, monospace">LYNXTRON BENCHMARK</text>
</svg>
