<svg width="1200" height="675" viewBox="0 0 1200 675" fill="none" xmlns="http://www.w3.org/2000/svg">
  <defs>
    <linearGradient id="bg" x1="0" y1="0" x2="1200" y2="675" gradientUnits="userSpaceOnUse">
      <stop offset="0" stop-color="#0F172A"/>
      <stop offset="1" stop-color="#1E3A8A"/>
    </linearGradient>
    <linearGradient id="accent" x1="140" y1="140" x2="1060" y2="540" gradientUnits="userSpaceOnUse">
      <stop offset="0" stop-color="#007AFF"/>
      <stop offset="1" stop-color="#34D399"/>
    </linearGradient>
  </defs>
  <rect width="1200" height="675" rx="48" fill="url(#bg)"/>
  <circle cx="1000" cy="100" r="150" fill="rgba(0,122,255,0.12)"/>
  <circle cx="150" cy="600" r="120" fill="rgba(52,211,153,0.10)"/>
  <rect x="72" y="68" width="1056" height="540" rx="36" stroke="rgba(255,255,255,0.10)" stroke-width="2"/>
  <text x="112" y="170" fill="#E2E8F0" font-size="58" font-weight="700" font-family="Arial, Helvetica, sans-serif">SYSTEM MONITOR</text>
  <text x="112" y="232" fill="#94A3B8" font-size="32" font-weight="500" font-family="Arial, Helvetica, sans-serif">Node.js + Lynx communication</text>
  
  <rect x="112" y="288" width="480" height="120" rx="24" fill="rgba(255,255,255,0.05)" stroke="rgba(255,255,255,0.08)"/>
  <text x="144" y="340" fill="#94A3B8" font-size="24" font-family="Arial, Helvetica, sans-serif">CPU USAGE</text>
  <rect x="144" y="356" width="416" height="16" rx="8" fill="rgba(255,255,255,0.10)"/>
  <rect x="144" y="356" width="280" height="16" rx="8" fill="url(#accent)"/>
  <text x="480" y="340" fill="#34D399" font-size="28" font-weight="600" font-family="Arial, Helvetica, sans-serif">67%</text>
  
  <rect x="112" y="432" width="480" height="120" rx="24" fill="rgba(255,255,255,0.05)" stroke="rgba(255,255,255,0.08)"/>
  <text x="144" y="484" fill="#94A3B8" font-size="24" font-family="Arial, Helvetica, sans-serif">MEMORY</text>
  <rect x="144" y="500" width="416" height="16" rx="8" fill="rgba(255,255,255,0.10)"/>
  <rect x="144" y="500" width="190" height="16" rx="8" fill="url(#accent)"/>
  <text x="480" y="484" fill="#34D399" font-size="28" font-weight="600" font-family="Arial, Helvetica, sans-serif">45%</text>
  
  <rect x="624" y="288" width="504" height="264" rx="24" fill="rgba(255,255,255,0.05)" stroke="rgba(255,255,255,0.08)"/>
  <text x="656" y="340" fill="#94A3B8" font-size="24" font-family="Arial, Helvetica, sans-serif">PLATFORM</text>
  <text x="656" y="390" fill="#F8FAFC" font-size="36" font-weight="600" font-family="Arial, Helvetica, sans-serif">Darwin</text>
  <text x="656" y="450" fill="#94A3B8" font-size="24" font-family="Arial, Helvetica, sans-serif">UPTIME</text>
  <text x="656" y="500" fill="#F8FAFC" font-size="32" font-weight="500" font-family="Arial, Helvetica, sans-serif">2d 5h 32m</text>
</svg>
