<svg width="1200" height="675" viewBox="0 0 1200 675" fill="none" xmlns="http://www.w3.org/2000/svg">
  <rect width="1200" height="675" fill="#1d2427"/>
  <rect x="0.5" y="0.5" width="1199" height="674" stroke="rgba(255,255,255,0.1)" stroke-width="1"/>

  <!-- flat metric panel illustration -->
  <rect x="120" y="110" width="620" height="360" rx="6" fill="#2c2e3b" stroke="rgba(255,255,255,0.1)" stroke-width="1"/>

  <text x="164" y="204" fill="#f5f8fa" font-size="56" font-weight="600" font-family="Menlo, monospace">42.7%</text>
  <text x="166" y="238" fill="#a7b6c2" font-size="16" font-weight="600" letter-spacing="2.4" font-family="Menlo, monospace">CPU LOAD</text>

  <rect x="164" y="272" width="532" height="16" rx="3" fill="#21232d" stroke="rgba(255,255,255,0.1)" stroke-width="1"/>
  <rect x="165" y="273" width="226" height="14" rx="2" fill="#137cbd"/>

  <text x="164" y="356" fill="#f5f8fa" font-size="40" font-weight="600" font-family="Menlo, monospace">63.1%</text>
  <text x="166" y="388" fill="#a7b6c2" font-size="16" font-weight="600" letter-spacing="2.4" font-family="Menlo, monospace">MEMORY IN USE</text>

  <rect x="164" y="410" width="532" height="16" rx="3" fill="#21232d" stroke="rgba(255,255,255,0.1)" stroke-width="1"/>
  <rect x="165" y="411" width="335" height="14" rx="2" fill="#48aff0"/>

  <!-- quiet ticker bars, right side -->
  <rect x="812" y="390" width="28" height="80" fill="#137cbd"/>
  <rect x="852" y="350" width="28" height="120" fill="#137cbd"/>
  <rect x="892" y="410" width="28" height="60" fill="#137cbd"/>
  <rect x="932" y="310" width="28" height="160" fill="#48aff0"/>
  <rect x="972" y="370" width="28" height="100" fill="#137cbd"/>
  <rect x="1012" y="330" width="28" height="140" fill="#137cbd"/>
  <line x1="812" y1="470.5" x2="1040" y2="470.5" stroke="rgba(255,255,255,0.1)" stroke-width="1"/>

  <text x="120" y="595" fill="#a7b6c2" font-size="34" font-weight="600" letter-spacing="4" font-family="Menlo, monospace">SYSTEM MONITOR</text>
</svg>
